P3
2 3
255
0
0
0
82
82
82
101
101
101
57
57
57
67
67
67
135
135
135
