P3
2 3
255
0
0
0
58
58
58
58
58
58
58
58
58
58
58
58
100
100
100
