P3
2 3
127
0
0
0
50
0
0
0
50
0
0
0
50
0
0
50
50
50
50
