P3
2 3
255
100
50
25
0
0
0
50
25
100
50
100
25
100
100
100
25
50
100
