P3
2 3
255
50
50
50
150
100
75
100
150
75
100
75
150
75
100
150
150
150
150
