P3
2 3
127
21
20
12
34
21
20
34
43
39
45
40
50
28
39
46
37
40
51
