P3
2 3
255
0
0
0
82
73
57
101
90
70
57
51
40
67
59
46
135
120
93
