P3
2 3
255
0
0
0
58
58
58
83
83
83
35
35
35
48
48
48
100
100
100
