P3
2 3
255
0
0
0
25
25
25
25
25
25
100
100
100
100
100
100
100
100
100
