P3
2 3
255
0
0
0
100
100
100
50
50
50
50
50
50
25
25
25
100
100
100
