P3
2 3
255
25
50
100
100
100
100
50
100
25
50
25
100
0
0
0
100
50
25
