P3
2 3
255
0
0
0
50
50
50
100
100
100
25
25
25
50
50
50
100
100
100
