P3
2 3
127
34
25
12
109
62
31
118
127
106
118
100
127
62
100
127
118
127
127
