P3
2 3
255
34
25
12
109
62
31
118
156
106
118
100
162
62
100
153
118
137
153
