P3
2 3
127
0
0
0
82
73
57
101
90
70
57
51
40
67
59
46
127
120
93
