P3
2 3
127
0
0
0
100
100
100
100
100
100
100
100
100
100
100
100
100
100
100
