P3
2 3
127
50
50
50
127
100
75
100
127
75
100
75
127
75
100
127
127
127
127
